<svg width="111" height="133" viewBox="0 0 111 133" fill="none" xmlns="http://www.w3.org/2000/svg">
<path d="M110.679 90.4736C110.679 121.037 85.9026 132.455 55.3394 132.455C24.7763 132.455 0 121.037 0 90.4736C0 59.9105 25.6711 38.4736 56.2343 38.4736C86.7974 38.4736 110.679 59.9105 110.679 90.4736Z" fill="#FFD83B"/>
<circle cx="39.3578" cy="69.7216" r="4.53211" fill="#442626"/>
<circle cx="71.3212" cy="69.7216" r="4.53211" fill="#442626"/>
<path d="M75.8532 89.2809C75.8532 96.7899 68.0235 102.877 54.6239 102.877C41.2243 102.877 33.3945 96.7899 33.3945 89.2809C33.3945 81.7719 41.2243 75.6846 54.6239 75.6846C68.0235 75.6846 75.8532 81.7719 75.8532 89.2809Z" fill="#FD9B26"/>
<path d="M36 89.4551L73 89.4551" stroke="#E6840F" stroke-width="2.91" stroke-linecap="round"/>
<path d="M54.9907 22.0147C54.9907 12.4734 59.2843 4.8404 70.2568 2.45508" stroke="#427E5F" stroke-width="4.91" stroke-linecap="round"/>
<path d="M75.5046 38.2349C75.5046 49.696 66.2135 51.8312 54.7523 51.8312C43.2911 51.8312 34 49.696 34 38.2349C34 26.7737 43.2911 21.0605 54.7523 21.0605C66.2135 21.0605 75.5046 26.7737 75.5046 38.2349Z" fill="#E26049"/>
<path d="M51.3988 28.188C52.0677 30.2638 50.0388 31.2663 47.4104 32.1132C44.7821 32.9601 42.5496 33.3306 41.8807 31.2549C41.2119 29.1792 43.4785 27.7229 46.1068 26.876C48.7352 26.0291 50.73 26.1123 51.3988 28.188Z" fill="white"/>
</svg>
